<svg xmlns="http://www.w3.org/2000/svg" height="45" width="226" viewBox="0 0 226 45"><defs><style>.cls-1{font-size:6.11px;font-family:ArialMT, Arial;}.cls-1,.cls-2{fill:#fff;}.cls-3{fill:#cbcdcc;}.cls-4{fill:#65a0ce;}.cls-5{fill:#2a4385;}</style></defs><g id="Tagline_TM" data-name="Tagline TM"><text class="cls-1" transform="translate(219.62 39.76)">™</text></g><g id="Tagline"><path class="cls-2" d="M49.28,41.9V35.49h.79V41.9Z"/><path class="cls-2" d="M52.81,38h0a2.68,2.68,0,0,1,.28-.3,1.72,1.72,0,0,1,.34-.24,1.67,1.67,0,0,1,.41-.16,1.8,1.8,0,0,1,.48-.06,1.92,1.92,0,0,1,.59.09,1.18,1.18,0,0,1,.47.28,1.2,1.2,0,0,1,.32.5,2.09,2.09,0,0,1,.12.76v3h-.75V39a1.28,1.28,0,0,0-.22-.85.87.87,0,0,0-.67-.26,1.46,1.46,0,0,0-.74.21,2,2,0,0,0-.62.59V41.9h-.74V37.35h.57Z"/><path class="cls-2" d="M60.16,41.91a2,2,0,0,1-.3.08,3.09,3.09,0,0,1-.47,0,2.28,2.28,0,0,1-.62-.08,1.2,1.2,0,0,1-.44-.26,1.11,1.11,0,0,1-.26-.4,1.42,1.42,0,0,1-.08-.52V38h-.88v-.64H58V36.11h.74v1.24h1.36V38H58.73v2.65a1,1,0,0,0,0,.3.57.57,0,0,0,.15.23.62.62,0,0,0,.25.15,1,1,0,0,0,.37.06l.31,0a1.55,1.55,0,0,0,.31-.06Z"/><path class="cls-2" d="M63.81,41.38a3.58,3.58,0,0,0,.68-.06,4.5,4.5,0,0,0,.6-.17v.62a2.13,2.13,0,0,1-.6.18,3.8,3.8,0,0,1-.77.07,3.41,3.41,0,0,1-.92-.12,1.89,1.89,0,0,1-.74-.4,1.81,1.81,0,0,1-.49-.73,2.91,2.91,0,0,1-.18-1.08,3.22,3.22,0,0,1,.17-1.08,2.27,2.27,0,0,1,.46-.76,1.76,1.76,0,0,1,.66-.46,1.91,1.91,0,0,1,.78-.16,1.87,1.87,0,0,1,.71.13,1.44,1.44,0,0,1,.58.4,2,2,0,0,1,.38.7,3.23,3.23,0,0,1,.14,1v.28H62.13a1.82,1.82,0,0,0,.13.74,1.3,1.3,0,0,0,.36.49,1.42,1.42,0,0,0,.53.28A2.39,2.39,0,0,0,63.81,41.38Zm-.39-3.51a1.12,1.12,0,0,0-.48.1,1.3,1.3,0,0,0-.65.68,1.36,1.36,0,0,0-.12.5h2.32a1.7,1.7,0,0,0-.07-.51,1.08,1.08,0,0,0-.2-.4.82.82,0,0,0-.34-.27A1,1,0,0,0,63.42,37.87Z"/><path class="cls-2" d="M68.79,37.23a2,2,0,0,1,.52.08,1.91,1.91,0,0,1,.38.18,1.84,1.84,0,0,1,.25.21.91.91,0,0,1,.12.17h0l.16-.52h.56v4.82a2.19,2.19,0,0,1-.18.92,1.65,1.65,0,0,1-.48.65,2.23,2.23,0,0,1-.75.39,3.68,3.68,0,0,1-1,.12,3.37,3.37,0,0,1-.81-.08,1.84,1.84,0,0,1-.55-.19v-.62l.32.11.31.08.33,0,.38,0a1.83,1.83,0,0,0,1.23-.38,1.45,1.45,0,0,0,.42-1.14v-.61h0a1.54,1.54,0,0,1-.57.41,1.88,1.88,0,0,1-.74.13,2,2,0,0,1-.41,0,1.91,1.91,0,0,1-.44-.15,1.58,1.58,0,0,1-.42-.27,1.48,1.48,0,0,1-.36-.42,2.59,2.59,0,0,1-.24-.61,2.85,2.85,0,0,1-.1-.81,3.26,3.26,0,0,1,.17-1.1,2.27,2.27,0,0,1,.46-.78,1.84,1.84,0,0,1,.65-.46A1.93,1.93,0,0,1,68.79,37.23Zm-1.25,2.43a2.38,2.38,0,0,0,.13.87,1.21,1.21,0,0,0,.33.53,1,1,0,0,0,.43.26,1.5,1.5,0,0,0,.45.07,1.39,1.39,0,0,0,.64-.14,1.66,1.66,0,0,0,.53-.38V38.49l-.17-.19a1.73,1.73,0,0,0-.25-.21,2.16,2.16,0,0,0-.34-.16,1.31,1.31,0,0,0-.41-.06,1.21,1.21,0,0,0-.58.13,1.15,1.15,0,0,0-.42.37,1.71,1.71,0,0,0-.26.56A3.26,3.26,0,0,0,67.54,39.66Z"/><path class="cls-2" d="M75.22,38h-.06a2.92,2.92,0,0,0-.51,0,2.44,2.44,0,0,0-.48.15,2.23,2.23,0,0,0-.4.24,1.38,1.38,0,0,0-.3.34V41.9h-.75V37.35h.58l.14.73h0a1.68,1.68,0,0,1,.27-.34,1.83,1.83,0,0,1,.36-.26,1.57,1.57,0,0,1,.44-.18,1.68,1.68,0,0,1,.5-.07h.19Z"/><path class="cls-2" d="M79.17,41.4h0a1.66,1.66,0,0,1-.23.23,2.49,2.49,0,0,1-.32.2,1.9,1.9,0,0,1-.4.14,1.71,1.71,0,0,1-.46.05,2,2,0,0,1-.61-.09,1.49,1.49,0,0,1-.47-.29,1.33,1.33,0,0,1-.31-.46,1.75,1.75,0,0,1-.11-.62,1.48,1.48,0,0,1,.12-.61,1.41,1.41,0,0,1,.34-.46,1.58,1.58,0,0,1,.53-.28,2.17,2.17,0,0,1,.69-.1,3.34,3.34,0,0,1,.65.06,3.53,3.53,0,0,1,.54.14h0V39a1.72,1.72,0,0,0,0-.34.67.67,0,0,0-.08-.25.92.92,0,0,0-.4-.38,1.5,1.5,0,0,0-.73-.15,3.34,3.34,0,0,0-.65.06c-.2.05-.41.11-.61.18V37.5l.27-.11.33-.08a2.2,2.2,0,0,1,.37-.06l.38,0a2.25,2.25,0,0,1,1.13.25,1.49,1.49,0,0,1,.63.64,1.91,1.91,0,0,1,.1.34,2.54,2.54,0,0,1,0,.41v3h-.62Zm0-1.49a4,4,0,0,0-.49-.11,3,3,0,0,0-.62-.06,1.25,1.25,0,0,0-.74.2.71.71,0,0,0-.26.62,1.06,1.06,0,0,0,.06.37.83.83,0,0,0,.19.26.65.65,0,0,0,.27.15,1,1,0,0,0,.34,0,1.33,1.33,0,0,0,.45-.07,3,3,0,0,0,.36-.16A1.58,1.58,0,0,0,79,41l.17-.14Z"/><path class="cls-2" d="M84.2,41.91a1.58,1.58,0,0,1-.29.08,3.18,3.18,0,0,1-.47,0,2.35,2.35,0,0,1-.63-.08,1.15,1.15,0,0,1-.43-.26.9.9,0,0,1-.26-.4,1.42,1.42,0,0,1-.09-.52V38h-.88v-.64H82V36.11h.74v1.24h1.36V38H82.77v2.65a.94.94,0,0,0,0,.3.68.68,0,0,0,.14.23.7.7,0,0,0,.25.15,1,1,0,0,0,.37.06l.32,0a1.33,1.33,0,0,0,.3-.06Z"/><path class="cls-2" d="M85.72,36.29v-.83h.75v.83Zm0,5.61V37.35h.75V41.9Z"/><path class="cls-2" d="M89.18,38h0a1.93,1.93,0,0,1,.27-.3,1.72,1.72,0,0,1,.34-.24,1.67,1.67,0,0,1,.41-.16,1.88,1.88,0,0,1,.49-.06,1.85,1.85,0,0,1,.58.09,1.18,1.18,0,0,1,.47.28,1.2,1.2,0,0,1,.32.5,2.09,2.09,0,0,1,.12.76v3h-.74V39a1.27,1.27,0,0,0-.23-.85.84.84,0,0,0-.66-.26,1.47,1.47,0,0,0-.75.21,2,2,0,0,0-.61.59V41.9h-.75V37.35H89Z"/><path class="cls-2" d="M95.89,37.23a2,2,0,0,1,.52.08,1.68,1.68,0,0,1,.38.18,1.38,1.38,0,0,1,.25.21l.13.17h0l.15-.52h.56v4.82a2.36,2.36,0,0,1-.17.92,1.78,1.78,0,0,1-.49.65,2.14,2.14,0,0,1-.75.39,3.63,3.63,0,0,1-1,.12,3.23,3.23,0,0,1-.8-.08,1.91,1.91,0,0,1-.56-.19v-.62l.32.11.31.08.34,0,.37,0a1.79,1.79,0,0,0,1.23-.38,1.46,1.46,0,0,0,.43-1.14v-.61h0a1.54,1.54,0,0,1-.57.41,1.88,1.88,0,0,1-.74.13,2.1,2.1,0,0,1-.41,0,1.91,1.91,0,0,1-.44-.15,1.58,1.58,0,0,1-.42-.27,1.63,1.63,0,0,1-.35-.42,2.23,2.23,0,0,1-.25-.61,3.26,3.26,0,0,1-.1-.81,3,3,0,0,1,.18-1.1,2.11,2.11,0,0,1,.45-.78,1.88,1.88,0,0,1,1.4-.61Zm-1.25,2.43a2.38,2.38,0,0,0,.13.87,1.42,1.42,0,0,0,.33.53,1.08,1.08,0,0,0,.43.26,1.5,1.5,0,0,0,.45.07,1.39,1.39,0,0,0,.64-.14,1.71,1.71,0,0,0,.54-.38V38.49A1.48,1.48,0,0,0,97,38.3a1.32,1.32,0,0,0-.25-.21,2.16,2.16,0,0,0-.34-.16,1.29,1.29,0,0,0-.4-.06,1.18,1.18,0,0,0-.58.13,1.27,1.27,0,0,0-.43.37,1.52,1.52,0,0,0-.25.56A2.75,2.75,0,0,0,94.64,39.66Z"/><path class="cls-2" d="M101.3,41.9l2.61-6.41h.68l2.61,6.41h-.85L105.58,40H102.9l-.76,1.93Zm2.94-5.41c-.28.8-.56,1.52-.82,2.17l-.24.61h2.13l-.25-.6c-.26-.67-.53-1.39-.8-2.18Z"/><path class="cls-2" d="M110.38,42a2.51,2.51,0,0,1-.64-.07,1.83,1.83,0,0,1-.49-.22,1.42,1.42,0,0,1-.36-.33,1.64,1.64,0,0,1-.24-.43,2,2,0,0,1-.09-.37,3.19,3.19,0,0,1,0-.45v-2.8h.74v2.79a1.67,1.67,0,0,0,.1.63,1,1,0,0,0,.37.46,1.2,1.2,0,0,0,.66.16,1.13,1.13,0,0,0,.67-.18,1,1,0,0,0,.37-.49,1.93,1.93,0,0,0,.08-.58V37.35h.75v2.8a2.9,2.9,0,0,1,0,.43,2.22,2.22,0,0,1-.09.37,1.48,1.48,0,0,1-.6.77A2,2,0,0,1,111,42,2.73,2.73,0,0,1,110.38,42Z"/><path class="cls-2" d="M116.55,41.91a2,2,0,0,1-.3.08,3.18,3.18,0,0,1-.47,0,2.28,2.28,0,0,1-.62-.08,1.2,1.2,0,0,1-.44-.26,1,1,0,0,1-.26-.4,1.42,1.42,0,0,1-.09-.52V38h-.87v-.64h.87V36.11h.75v1.24h1.36V38h-1.36v2.65a1,1,0,0,0,0,.3.57.57,0,0,0,.15.23.62.62,0,0,0,.25.15,1,1,0,0,0,.37.06l.31,0a1.55,1.55,0,0,0,.31-.06Z"/><path class="cls-2" d="M122.1,39.63a3,3,0,0,1-.15,1,2.13,2.13,0,0,1-.44.75,1.82,1.82,0,0,1-.67.49,2.19,2.19,0,0,1-.9.17,2.16,2.16,0,0,1-.9-.17,1.78,1.78,0,0,1-.68-.49,2,2,0,0,1-.43-.75,3.28,3.28,0,0,1,0-2,2.2,2.2,0,0,1,.44-.76,1.89,1.89,0,0,1,.68-.49,2.28,2.28,0,0,1,.89-.17,2.38,2.38,0,0,1,.91.17,2.08,2.08,0,0,1,.68.49,2.33,2.33,0,0,1,.42.76A3,3,0,0,1,122.1,39.63Zm-.78,0a2.48,2.48,0,0,0-.1-.75,1.52,1.52,0,0,0-.29-.55,1.21,1.21,0,0,0-.43-.35,1.48,1.48,0,0,0-1.12,0,1.34,1.34,0,0,0-.44.35,1.67,1.67,0,0,0-.28.55,2.86,2.86,0,0,0,0,1.5,1.52,1.52,0,0,0,.29.55,1.12,1.12,0,0,0,.44.34,1.26,1.26,0,0,0,.55.12,1.28,1.28,0,0,0,.56-.12,1.09,1.09,0,0,0,.43-.34,1.52,1.52,0,0,0,.29-.55A2.48,2.48,0,0,0,121.32,39.63Z"/><path class="cls-2" d="M127.48,41.9h-.74V39a1.88,1.88,0,0,0-.06-.51,1,1,0,0,0-.19-.34.72.72,0,0,0-.29-.2,1.16,1.16,0,0,0-.38-.06,1.32,1.32,0,0,0-.73.21,2.17,2.17,0,0,0-.58.59V41.9h-.74V37.35h.57l.14.64h0a2.07,2.07,0,0,1,.59-.54,1.76,1.76,0,0,1,.4-.16,1.73,1.73,0,0,1,.47-.06,1.33,1.33,0,0,1,.84.25,1.49,1.49,0,0,1,.52.66h0a2.58,2.58,0,0,1,.69-.67,1.69,1.69,0,0,1,.91-.24,1.89,1.89,0,0,1,.51.07,1.2,1.2,0,0,1,.49.25,1.25,1.25,0,0,1,.37.49,1.91,1.91,0,0,1,.15.82v3h-.74V39a1.53,1.53,0,0,0-.07-.51.85.85,0,0,0-.18-.34.72.72,0,0,0-.29-.2,1.16,1.16,0,0,0-.38-.06,1.32,1.32,0,0,0-.73.21,2.21,2.21,0,0,0-.59.59Z"/><path class="cls-2" d="M135.05,41.4h0a1.66,1.66,0,0,1-.23.23,2,2,0,0,1-.32.2,1.57,1.57,0,0,1-.4.14,1.66,1.66,0,0,1-.46.05,1.89,1.89,0,0,1-.6-.09,1.54,1.54,0,0,1-.48-.29,1.49,1.49,0,0,1-.31-.46,1.75,1.75,0,0,1-.11-.62,1.33,1.33,0,0,1,.13-.61,1.28,1.28,0,0,1,.34-.46,1.41,1.41,0,0,1,.53-.28,2.07,2.07,0,0,1,.68-.1,3.37,3.37,0,0,1,.66.06,3.11,3.11,0,0,1,.53.14h0V39a3.28,3.28,0,0,0,0-.34.92.92,0,0,0-.08-.25,1,1,0,0,0-.4-.38,1.54,1.54,0,0,0-.74-.15,3.42,3.42,0,0,0-.65.06q-.3.08-.6.18V37.5a1.86,1.86,0,0,1,.27-.11l.33-.08a1.93,1.93,0,0,1,.36-.06l.38,0a2.23,2.23,0,0,1,1.13.25,1.49,1.49,0,0,1,.63.64,1.33,1.33,0,0,1,.1.34,1.73,1.73,0,0,1,0,.41v3h-.63Zm0-1.49a3.85,3.85,0,0,0-.48-.11,3,3,0,0,0-.62-.06,1.23,1.23,0,0,0-.74.2.72.72,0,0,0-.27.62.87.87,0,0,0,.07.37.68.68,0,0,0,.18.26.69.69,0,0,0,.28.15.93.93,0,0,0,.34,0,1.27,1.27,0,0,0,.44-.07,2.57,2.57,0,0,0,.37-.16,3.16,3.16,0,0,0,.27-.2l.16-.14Z"/><path class="cls-2" d="M140.08,41.91a1.58,1.58,0,0,1-.29.08,3.18,3.18,0,0,1-.47,0,2.22,2.22,0,0,1-.62-.08,1.2,1.2,0,0,1-.44-.26,1,1,0,0,1-.26-.4,1.42,1.42,0,0,1-.09-.52V38H137v-.64h.87V36.11h.75v1.24H140V38h-1.36v2.65a1,1,0,0,0,0,.3.57.57,0,0,0,.15.23.62.62,0,0,0,.25.15,1,1,0,0,0,.37.06l.31,0a1.33,1.33,0,0,0,.3-.06Z"/><path class="cls-2" d="M141.61,36.29v-.83h.74v.83Zm0,5.61V37.35h.74V41.9Z"/><path class="cls-2" d="M148.41,39.63a3,3,0,0,1-.16,1,2,2,0,0,1-.43.75,1.85,1.85,0,0,1-.68.49,2.11,2.11,0,0,1-.89.17,2.21,2.21,0,0,1-.91-.17,1.85,1.85,0,0,1-.68-.49,2,2,0,0,1-.43-.75,3,3,0,0,1-.15-1,2.76,2.76,0,0,1,.16-1,2.18,2.18,0,0,1,.43-.76,2,2,0,0,1,.68-.49,2.35,2.35,0,0,1,.89-.17,2.38,2.38,0,0,1,.91.17,1.89,1.89,0,0,1,.68.49,2.18,2.18,0,0,1,.43.76A3,3,0,0,1,148.41,39.63Zm-.78,0a2.48,2.48,0,0,0-.1-.75,1.69,1.69,0,0,0-.29-.55,1.24,1.24,0,0,0-.44-.35,1.27,1.27,0,0,0-.56-.11,1.26,1.26,0,0,0-.55.11,1.24,1.24,0,0,0-.44.35,1.69,1.69,0,0,0-.29.55,2.86,2.86,0,0,0,0,1.5,1.69,1.69,0,0,0,.29.55,1.19,1.19,0,0,0,.44.34,1.31,1.31,0,0,0,.56.12,1.23,1.23,0,0,0,.55-.12,1.12,1.12,0,0,0,.44-.34,1.69,1.69,0,0,0,.29-.55A2.48,2.48,0,0,0,147.63,39.63Z"/><path class="cls-2" d="M150.79,38h0a2.68,2.68,0,0,1,.28-.3,1.72,1.72,0,0,1,.34-.24,1.67,1.67,0,0,1,.41-.16,1.8,1.8,0,0,1,.48-.06,1.92,1.92,0,0,1,.59.09,1.18,1.18,0,0,1,.47.28,1.2,1.2,0,0,1,.32.5,2.09,2.09,0,0,1,.12.76v3h-.75V39a1.28,1.28,0,0,0-.22-.85.86.86,0,0,0-.67-.26,1.46,1.46,0,0,0-.74.21,2,2,0,0,0-.62.59V41.9h-.74V37.35h.57Z"/><path class="cls-2" d="M163.37,38.57a3.62,3.62,0,0,1-.24,1.26,3.46,3.46,0,0,1-.6,1l.38.4.32.33.23.23.11.11h-.95l-.18-.18L162,41.3a3.87,3.87,0,0,1-1,.54,3.41,3.41,0,0,1-1.09.18,2.43,2.43,0,0,1-.9-.14,1.81,1.81,0,0,1-.62-.38,1.33,1.33,0,0,1-.35-.53,1.87,1.87,0,0,1-.11-.61,1.9,1.9,0,0,1,.11-.66,1.77,1.77,0,0,1,.29-.5,2,2,0,0,1,.42-.39,5.19,5.19,0,0,1,.5-.31l-.36-.37a2.79,2.79,0,0,1-.3-.38,1.53,1.53,0,0,1-.19-.41,1.42,1.42,0,0,1-.08-.48,1.61,1.61,0,0,1,.13-.63,1.37,1.37,0,0,1,.36-.46,1.77,1.77,0,0,1,.56-.3,2.74,2.74,0,0,1,.73-.1,2.41,2.41,0,0,1,.67.09,2,2,0,0,1,.55.27,1.33,1.33,0,0,1,.37.45,1.31,1.31,0,0,1,.13.61,1.54,1.54,0,0,1-.12.63,2,2,0,0,1-.33.48,2.5,2.5,0,0,1-.47.39c-.18.11-.36.22-.55.32l.36.37.41.43.45.46.46.47a2.66,2.66,0,0,0,.39-.75,3.22,3.22,0,0,0,.15-1Zm-3.44,2.82.38,0a2,2,0,0,0,.41-.1,2.26,2.26,0,0,0,.43-.17,3.45,3.45,0,0,0,.41-.25l-.48-.49-.49-.5-.46-.48-.4-.4a3.73,3.73,0,0,0-.39.25,1.83,1.83,0,0,0-.32.3,1.13,1.13,0,0,0-.21.35,1,1,0,0,0-.08.43,1.14,1.14,0,0,0,.07.41,1,1,0,0,0,.59.59A1.53,1.53,0,0,0,159.93,41.39Zm-.81-4.53a1.27,1.27,0,0,0,0,.34,1.53,1.53,0,0,0,.16.31,2.27,2.27,0,0,0,.25.31l.34.35.44-.25a2.14,2.14,0,0,0,.36-.28,1.19,1.19,0,0,0,.25-.35,1,1,0,0,0,.09-.44.89.89,0,0,0-.07-.38.57.57,0,0,0-.2-.26.91.91,0,0,0-.31-.16,1.61,1.61,0,0,0-.39,0,1,1,0,0,0-.71.22A.79.79,0,0,0,159.12,36.86Z"/><path class="cls-2" d="M167.8,41.9V35.49h.78V41.9Z"/><path class="cls-2" d="M171.32,38h0a1.93,1.93,0,0,1,.27-.3,2.08,2.08,0,0,1,.34-.24,1.84,1.84,0,0,1,.41-.16,1.88,1.88,0,0,1,.49-.06,1.81,1.81,0,0,1,.58.09,1.29,1.29,0,0,1,.48.28,1.31,1.31,0,0,1,.32.5,2.35,2.35,0,0,1,.11.76v3h-.74V39a1.22,1.22,0,0,0-.23-.85.84.84,0,0,0-.66-.26,1.43,1.43,0,0,0-.74.21,2,2,0,0,0-.62.59V41.9h-.74V37.35h.57Z"/><path class="cls-2" d="M178.91,35.55l-.31,0-.3,0a1.25,1.25,0,0,0-.45.07.78.78,0,0,0-.33.19,1,1,0,0,0-.21.36,1.73,1.73,0,0,0-.07.54v.7h1.36V38h-1.36V41.9h-.74V38h-.8v-.64h.8v-.69a2.23,2.23,0,0,1,.13-.83,1.59,1.59,0,0,1,.36-.56,1.46,1.46,0,0,1,.54-.32,2.09,2.09,0,0,1,.67-.1,2.89,2.89,0,0,1,.43,0l.28.05Z"/><path class="cls-2" d="M183.94,39.63a3,3,0,0,1-.15,1,2.13,2.13,0,0,1-.44.75,1.78,1.78,0,0,1-.68.49,2.11,2.11,0,0,1-.89.17,2.24,2.24,0,0,1-.91-.17,1.82,1.82,0,0,1-.67-.49,2,2,0,0,1-.43-.75,3.28,3.28,0,0,1,0-2,2.35,2.35,0,0,1,.43-.76,2.08,2.08,0,0,1,.68-.49,2.37,2.37,0,0,1,.9-.17,2.33,2.33,0,0,1,.9.17,2,2,0,0,1,.69.49,2.33,2.33,0,0,1,.42.76A3,3,0,0,1,183.94,39.63Zm-.78,0a2.48,2.48,0,0,0-.1-.75,1.52,1.52,0,0,0-.29-.55,1.19,1.19,0,0,0-1-.46,1.3,1.3,0,0,0-.56.11,1.34,1.34,0,0,0-.44.35,1.67,1.67,0,0,0-.28.55,2.61,2.61,0,0,0,0,1.5,1.52,1.52,0,0,0,.29.55,1.12,1.12,0,0,0,.44.34,1.26,1.26,0,0,0,.55.12,1.31,1.31,0,0,0,.56-.12,1.16,1.16,0,0,0,.43-.34,1.52,1.52,0,0,0,.29-.55A2.48,2.48,0,0,0,183.16,39.63Z"/><path class="cls-2" d="M188.1,38H188a3.12,3.12,0,0,0-.52,0,2.57,2.57,0,0,0-.47.15,2.23,2.23,0,0,0-.4.24,1.38,1.38,0,0,0-.3.34V41.9h-.75V37.35h.58l.14.73h0a1.68,1.68,0,0,1,.27-.34,1.83,1.83,0,0,1,.36-.26,1.57,1.57,0,0,1,.44-.18,1.68,1.68,0,0,1,.5-.07h.19Z"/><path class="cls-2" d="M193.1,41.9h-.74V39a1.53,1.53,0,0,0-.07-.51.85.85,0,0,0-.18-.34.75.75,0,0,0-.3-.2,1.12,1.12,0,0,0-.38-.06,1.32,1.32,0,0,0-.72.21,2.36,2.36,0,0,0-.59.59V41.9h-.74V37.35H190l.14.64h0q.13-.16.27-.3a2,2,0,0,1,.33-.24,1.59,1.59,0,0,1,.4-.16,1.73,1.73,0,0,1,.47-.06,1.33,1.33,0,0,1,.84.25,1.57,1.57,0,0,1,.52.66h0a2.58,2.58,0,0,1,.69-.67,1.68,1.68,0,0,1,.9-.24,1.89,1.89,0,0,1,.51.07,1.24,1.24,0,0,1,.5.25,1.35,1.35,0,0,1,.37.49,1.91,1.91,0,0,1,.15.82v3h-.74V39a1.53,1.53,0,0,0-.07-.51.85.85,0,0,0-.18-.34.75.75,0,0,0-.3-.2,1.12,1.12,0,0,0-.38-.06,1.32,1.32,0,0,0-.72.21,2.21,2.21,0,0,0-.59.59Z"/><path class="cls-2" d="M200.67,41.4h0a1.66,1.66,0,0,1-.23.23,2,2,0,0,1-.32.2,1.94,1.94,0,0,1-.86.19,2,2,0,0,1-.61-.09,1.49,1.49,0,0,1-.47-.29,1.33,1.33,0,0,1-.31-.46,1.75,1.75,0,0,1-.11-.62,1.48,1.48,0,0,1,.12-.61,1.41,1.41,0,0,1,.34-.46,1.58,1.58,0,0,1,.53-.28,2.17,2.17,0,0,1,.69-.1,3.34,3.34,0,0,1,.65.06,3.53,3.53,0,0,1,.54.14h0V39a3.28,3.28,0,0,0,0-.34.92.92,0,0,0-.09-.25,1,1,0,0,0-.39-.38,1.57,1.57,0,0,0-.74-.15,3.34,3.34,0,0,0-.65.06c-.2.05-.41.11-.61.18V37.5l.27-.11.33-.08a2.2,2.2,0,0,1,.37-.06l.38,0a2.23,2.23,0,0,1,1.13.25,1.49,1.49,0,0,1,.63.64,1.33,1.33,0,0,1,.1.34,2.54,2.54,0,0,1,0,.41v3h-.62Zm0-1.49a4,4,0,0,0-.49-.11,2.9,2.9,0,0,0-.62-.06,1.25,1.25,0,0,0-.74.2.74.74,0,0,0-.26.62,1.06,1.06,0,0,0,.06.37.83.83,0,0,0,.19.26.72.72,0,0,0,.27.15,1,1,0,0,0,.34,0,1.33,1.33,0,0,0,.45-.07,2.43,2.43,0,0,0,.36-.16,1.58,1.58,0,0,0,.27-.2l.17-.14Z"/><path class="cls-2" d="M205.7,41.91a1.58,1.58,0,0,1-.29.08,3.18,3.18,0,0,1-.47,0,2.22,2.22,0,0,1-.62-.08,1.12,1.12,0,0,1-.44-.26.9.9,0,0,1-.26-.4,1.42,1.42,0,0,1-.09-.52V38h-.88v-.64h.88V36.11h.74v1.24h1.36V38h-1.36v2.65a.94.94,0,0,0,0,.3.68.68,0,0,0,.14.23.7.7,0,0,0,.25.15,1.06,1.06,0,0,0,.37.06l.32,0a1.33,1.33,0,0,0,.3-.06Z"/><path class="cls-2" d="M207.23,36.29v-.83H208v.83Zm0,5.61V37.35H208V41.9Z"/><path class="cls-2" d="M214,39.63a3,3,0,0,1-.15,1,2.11,2.11,0,0,1-.43.75,1.94,1.94,0,0,1-.68.49,2.14,2.14,0,0,1-.89.17,2.21,2.21,0,0,1-.91-.17,1.78,1.78,0,0,1-.68-.49,2,2,0,0,1-.43-.75,3.28,3.28,0,0,1,0-2,2.37,2.37,0,0,1,.44-.76,1.89,1.89,0,0,1,.68-.49,2.28,2.28,0,0,1,.89-.17,2.38,2.38,0,0,1,.91.17,2.08,2.08,0,0,1,.68.49,2.33,2.33,0,0,1,.42.76A3,3,0,0,1,214,39.63Zm-.77,0a2.47,2.47,0,0,0-.11-.75,1.52,1.52,0,0,0-.29-.55,1.21,1.21,0,0,0-.43-.35,1.3,1.3,0,0,0-.56-.11,1.19,1.19,0,0,0-1,.46,1.52,1.52,0,0,0-.29.55,2.86,2.86,0,0,0,0,1.5,1.52,1.52,0,0,0,.29.55,1.12,1.12,0,0,0,.44.34,1.28,1.28,0,0,0,.56.12,1.26,1.26,0,0,0,.55-.12,1.09,1.09,0,0,0,.43-.34,1.52,1.52,0,0,0,.29-.55A2.47,2.47,0,0,0,213.25,39.63Z"/><path class="cls-2" d="M216.41,38h0a1.58,1.58,0,0,1,.28-.3,2,2,0,0,1,.33-.24,1.84,1.84,0,0,1,.41-.16,1.88,1.88,0,0,1,.49-.06,1.81,1.81,0,0,1,.58.09,1.22,1.22,0,0,1,.48.28,1.31,1.31,0,0,1,.32.5,2.1,2.1,0,0,1,.11.76v3h-.74V39a1.22,1.22,0,0,0-.23-.85.84.84,0,0,0-.66-.26,1.46,1.46,0,0,0-.74.21,2,2,0,0,0-.62.59V41.9h-.74V37.35h.57Z"/></g><g id="Logo"><path class="cls-2" d="M54.24,21.35h8A1.53,1.53,0,0,0,64,19.65V19c0-1.08-.56-1.7-2.12-1.7h-7.6v4Zm-5.18-8H63.17c4.92,0,6.11,2.34,6.11,5.47V20.2c0,2.38-1.1,5.12-4.76,5.12H54.24v4H49.06v-16Z"/><polygon class="cls-2" points="70.54 15.89 86.09 15.89 86.09 19.01 74.89 19.01 74.89 21.16 85.5 21.16 85.5 23.95 74.89 23.95 74.89 26.1 86.34 26.1 86.34 29.33 70.54 29.33 70.54 15.89 70.54 15.89"/><polygon class="cls-2" points="87.5 15.89 103.05 15.89 103.05 19.01 91.86 19.01 91.86 21.16 102.46 21.16 102.46 23.95 91.86 23.95 91.86 26.1 103.31 26.1 103.31 29.33 87.5 29.33 87.5 15.89 87.5 15.89"/><path class="cls-2" d="M108.82,22.5H116c1.18,0,1.61-.45,1.61-1.41v-.45c0-1.19-.63-1.41-2-1.41h-6.82V22.5Zm-4.35-6.61h13.15c3.36,0,4.26,1.58,4.26,4v.85c0,1.81-.43,2.86-2.43,3.31v0c1.29.22,2.37.76,2.37,3v2.28h-4.35V27.72c0-1.42-.44-1.88-1.79-1.88h-6.86v3.49h-4.35V15.89Z"/><path class="cls-2" d="M123.26,19c0-4.67,2.77-5.78,7.44-5.78h7.78c5.88,0,6.7,2,6.7,5.12v.51h-5.09c0-1.59-1-1.79-2.61-1.79h-5.62c-2.61,0-3.29.59-3.29,3.33v2c0,2.74.68,3.33,3.29,3.33h5.53c1.35,0,2.7-.2,2.7-1.74v-.46h-6.43V20.16h11.61V24.7c0,4.58-2.52,4.81-8.35,4.81H130.7c-4.67,0-7.44-1.11-7.44-5.78V19Z"/><path class="cls-2" d="M151,22.5h7.21c1.18,0,1.61-.45,1.61-1.41v-.45c0-1.19-.63-1.41-2-1.41H151V22.5Zm-4.36-6.61h13.16c3.36,0,4.26,1.58,4.26,4v.85c0,1.81-.43,2.86-2.43,3.31v0c1.29.22,2.37.76,2.37,3v2.28h-4.36V27.72c0-1.42-.43-1.88-1.78-1.88H151v3.49h-4.36V15.89Z"/><path class="cls-2" d="M169.67,23.33c0,2,.43,2.7,2.49,2.7h5c2.06,0,2.5-.75,2.5-2.7V21.89c0-1.68-.44-2.7-2.73-2.7h-4.55c-2.29,0-2.72,1-2.72,2.7v1.44Zm-4.48-2.72c0-3.94,2.33-4.87,6.26-4.87h6.43c3.93,0,6.26.93,6.26,4.87v4c0,3.93-2.33,4.86-6.26,4.86h-6.43c-3.93,0-6.26-.93-6.26-4.86v-4Z"/><path class="cls-2" d="M185.35,15.89h4.36v7.76c0,1.71.65,2.38,2.44,2.38h3.76c1.78,0,2.43-.67,2.43-2.38V15.89h4.36v8.65c0,3.34-1.83,4.94-5.83,4.94h-5.68c-4,0-5.84-1.6-5.84-4.94V15.89Z"/><path class="cls-2" d="M208.34,22.61h6.77a1.28,1.28,0,0,0,1.41-1.43v-.52c0-.91-.47-1.43-1.78-1.43h-6.4v3.38ZM204,15.89h11.88c4.14,0,5.14,2,5.14,4.6v1.16c0,2-.92,4.3-4,4.3h-8.66v3.38H204V15.89Z"/></g><g id="Brand_Mark" data-name="Brand Mark"><path id="White_background" data-name="White background" class="cls-2" d="M40.28,34.48v-26L15.36.63.23,21.74,15.64,42.66Zm-8.8-19.6V28.15L18.93,32.32,11.09,21.67l7.7-10.76Z"/><polygon id="Grey" class="cls-3" points="18.65 33.2 7.66 18.29 18.94 2.54 15.65 1.5 3.61 18.32 17.42 37.06 31.52 32.38 31.52 28.93 18.65 33.2"/><polygon id="Medium_Blue" data-name="Medium Blue" class="cls-4" points="35.52 11.95 21.24 7.46 19.23 10.27 32.23 14.33 32.23 32.91 17.15 37.92 3.16 18.94 1.16 21.74 15.92 41.78 35.52 35.27 35.52 11.95"/><polygon id="Dark_Blue" data-name="Dark Blue" class="cls-5" points="39.53 9.01 19.67 2.77 8.56 18.28 10.61 21.06 20.96 6.61 36.25 11.42 36.25 35.03 39.53 33.94 39.53 9.01"/></g></svg>